<svg width="16" height="19" viewBox="0 0 16 19" fill="none" xmlns="http://www.w3.org/2000/svg">
<g clip-path="url(#clip0_1256_1511)">
<path d="M3.48171 14.3392L6.73266 9.49895L3.48171 4.65864V14.3392ZM4.89045 16.4343H11.3562L8.10528 11.594L4.89045 16.4343ZM9.51403 9.49895L12.7289 14.3392V4.65864L9.51403 9.49895ZM11.3562 2.56358H4.89045L8.10528 7.40389L11.3562 2.56358ZM1.16992 1.98564C1.194 1.50401 1.36257 1.09464 1.67563 0.7575C2.01276 0.444447 2.42214 0.275877 2.90376 0.251797H13.3068C13.7884 0.275877 14.1978 0.444447 14.5349 0.7575C14.848 1.09464 15.0166 1.50401 15.0406 1.98564V17.0123C15.0166 17.4939 14.848 17.9033 14.5349 18.2404C14.1978 18.5534 13.7884 18.722 13.3068 18.7461H2.90376C2.42214 18.722 2.01276 18.5534 1.67563 18.2404C1.36257 17.9033 1.194 17.4939 1.16992 17.0123V1.98564Z" fill="#151F2E"/>
</g>
<defs>
<clipPath id="clip0_1256_1511">
<rect width="15.75" height="19" fill="white" transform="matrix(1 0 0 -1 0.230469 19)"/>
</clipPath>
</defs>
</svg>
